<?xml version="1.0" standalone="no"?>
<!DOCTYPE svg PUBLIC "-//W3C//DTD SVG 20010904//EN"
 "http://www.w3.org/TR/2001/REC-SVG-20010904/DTD/svg10.dtd">
<svg version="1.0" xmlns="http://www.w3.org/2000/svg"
 width="128.000000pt" height="128.000000pt" viewBox="0 0 128.000000 128.000000"
 preserveAspectRatio="xMidYMid meet">

<g transform="translate(0.000000,128.000000) scale(0.100000,-0.100000)"
fill="#000000" stroke="none">
<path d="M214 1045 c-30 -30 -30 -31 1 -101 14 -31 25 -58 25 -59 0 -2 -20
-15 -44 -29 -57 -33 -128 -113 -161 -181 -71 -145 -23 -317 112 -402 87 -55
92 -56 385 -54 l177 1 17 26 c14 21 16 31 7 55 -6 16 -8 31 -4 34 5 2 8 36 8
75 0 62 -3 73 -23 89 l-23 18 25 48 c28 56 31 103 8 148 -34 67 -79 97 -147
100 -30 1 -56 11 -93 37 l-52 36 25 58 c14 33 22 68 19 81 -7 28 -44 45 -74
34 -12 -5 -32 -5 -45 0 -12 5 -32 5 -45 0 -13 -5 -33 -4 -48 1 -21 8 -29 6
-50 -15z m226 -36 c0 -3 -11 -31 -24 -62 -27 -59 -52 -74 -106 -62 -22 5 -33
18 -53 63 -13 31 -23 59 -22 62 5 8 205 7 205 -1z m11 -185 l37 -23 -39 -41
c-26 -27 -41 -53 -45 -80 -7 -43 -29 -45 -45 -4 -10 29 -39 32 -39 5 0 -10 -6
-21 -14 -24 -8 -3 -22 -17 -31 -30 -20 -30 -6 -73 27 -86 73 -28 77 -31 72
-46 -9 -23 -61 -19 -74 5 -6 11 -17 20 -25 20 -25 0 -16 -37 15 -63 17 -14 30
-33 30 -41 0 -22 31 -20 37 2 2 10 13 23 23 30 16 10 19 8 23 -16 3 -24 3 -92
-1 -148 -2 -27 -41 -34 -120 -22 -146 23 -253 155 -239 294 10 100 77 202 174
264 36 23 52 27 120 27 64 0 84 -4 114 -23z m193 -75 c101 -79 52 -229 -74
-229 -96 0 -158 96 -115 180 36 70 131 94 189 49z m-269 -149 c10 -11 21 -17
25 -15 7 4 50 -57 50 -70 0 -1 -7 -6 -15 -9 -10 -4 -19 3 -25 18 -5 15 -23 29
-47 36 -48 16 -63 28 -56 46 8 20 47 17 68 -6z m314 -129 c8 -5 11 -16 8 -25
-9 -24 -245 -24 -254 0 -10 27 17 34 127 34 58 0 111 -4 119 -9z m8 -97 c10
-27 -17 -34 -127 -34 -110 0 -137 7 -127 34 9 24 245 24 254 0z m-2 -94 c0
-12 -21 -16 -119 -18 -115 -3 -146 4 -131 27 4 8 47 11 128 9 101 -3 122 -6
122 -18z"/>
<path d="M550 736 c0 -8 -7 -17 -16 -20 -13 -5 -15 -15 -11 -46 3 -22 1 -40
-4 -40 -17 0 -8 -25 21 -59 l29 -34 32 31 c39 38 35 74 -11 90 -16 6 -30 16
-30 21 0 16 11 13 32 -6 25 -22 45 -5 29 26 -7 12 -16 21 -21 21 -6 0 -10 7
-10 15 0 8 -9 15 -20 15 -11 0 -20 -6 -20 -14z m24 -112 c9 -3 14 -10 11 -15
-7 -10 -35 0 -35 12 0 11 3 11 24 3z"/>
<path d="M902 678 c-7 -7 -12 -24 -12 -39 0 -36 -42 -108 -71 -123 -17 -8 -24
-20 -24 -41 0 -26 9 -35 83 -78 73 -44 86 -49 107 -39 17 8 25 20 25 37 0 14
2 25 6 25 3 0 52 -27 110 -61 102 -58 106 -60 130 -44 28 18 31 46 7 67 -10 8
-60 38 -110 67 -51 29 -93 56 -93 61 0 5 9 12 20 15 25 8 37 50 20 70 -16 19
-153 95 -172 95 -8 0 -19 -5 -26 -12z m168 -112 c0 -4 -10 -2 -22 6 -13 8 -44
27 -70 42 -74 43 -57 42 22 -1 38 -21 70 -42 70 -47z m-92 2 c23 -13 42 -27
42 -32 0 -7 -33 -67 -46 -85 -4 -4 -94 48 -94 55 0 12 41 84 48 84 4 0 26 -10
50 -22z m-18 -166 c8 -8 -8 -1 -36 14 -76 44 -108 70 -39 33 33 -18 67 -38 75
-47z m243 -29 c45 -28 50 -42 5 -15 -18 11 -66 38 -105 62 -40 23 -73 44 -73
47 0 5 111 -55 173 -94z"/>
<path d="M762 318 c-7 -7 -12 -31 -12 -55 l0 -43 150 0 150 0 0 43 c0 24 -5
48 -12 55 -17 17 -259 17 -276 0z m248 -43 c0 -12 -19 -15 -110 -15 -91 0
-110 3 -110 15 0 12 19 15 110 15 91 0 110 -3 110 -15z"/>
</g>
</svg>
